<svg width="92" height="26" viewBox="0 0 92 26" fill="none" xmlns="http://www.w3.org/2000/svg">
<path fill-rule="evenodd" clip-rule="evenodd" d="M0 4.48276C0 2.007 2.00388 0 4.4758 0H21.4838C23.9558 0 25.9596 2.007 25.9596 4.48276V18.9705C25.9596 21.5319 22.7235 22.6435 21.154 20.6213L16.2472 14.2994V21.9655C16.2472 24.1937 14.4437 26 12.2189 26H4.4758C2.00388 26 0 23.993 0 21.5172V4.48276ZM4.4758 3.58621C3.98142 3.58621 3.58064 3.98761 3.58064 4.48276V21.5172C3.58064 22.0124 3.98142 22.4138 4.4758 22.4138H12.3532C12.6004 22.4138 12.6665 22.2131 12.6665 21.9655V11.6853C12.6665 9.12403 15.9027 8.0124 17.4722 10.0346L22.379 16.3564V4.48276C22.379 3.98761 22.4258 3.58621 21.9314 3.58621H4.4758Z" fill="#00E0D9"/>
<path fill-rule="evenodd" clip-rule="evenodd" d="M0 4.48276C0 2.007 2.00388 0 4.4758 0H21.4838C23.9558 0 25.9596 2.007 25.9596 4.48276V18.9705C25.9596 21.5319 22.7235 22.6435 21.154 20.6213L16.2472 14.2994V21.9655C16.2472 24.1937 14.4437 26 12.2189 26H4.4758C2.00388 26 0 23.993 0 21.5172V4.48276ZM4.4758 3.58621C3.98142 3.58621 3.58064 3.98761 3.58064 4.48276V21.5172C3.58064 22.0124 3.98142 22.4138 4.4758 22.4138H12.3532C12.6004 22.4138 12.6665 22.2131 12.6665 21.9655V11.6853C12.6665 9.12403 15.9027 8.0124 17.4722 10.0346L22.379 16.3564V4.48276C22.379 3.98761 22.4258 3.58621 21.9314 3.58621H4.4758Z" fill="url(#paint0_linear_4729_31710)"/>
<path fill-rule="evenodd" clip-rule="evenodd" d="M0 4.48276C0 2.007 2.00388 0 4.4758 0H21.4838C23.9558 0 25.9596 2.007 25.9596 4.48276V18.9705C25.9596 21.5319 22.7235 22.6435 21.154 20.6213L16.2472 14.2994V21.9655C16.2472 24.1937 14.4437 26 12.2189 26H4.4758C2.00388 26 0 23.993 0 21.5172V4.48276ZM4.4758 3.58621C3.98142 3.58621 3.58064 3.98761 3.58064 4.48276V21.5172C3.58064 22.0124 3.98142 22.4138 4.4758 22.4138H12.3532C12.6004 22.4138 12.6665 22.2131 12.6665 21.9655V11.6853C12.6665 9.12403 15.9027 8.0124 17.4722 10.0346L22.379 16.3564V4.48276C22.379 3.98761 22.4258 3.58621 21.9314 3.58621H4.4758Z" fill="url(#paint1_linear_4729_31710)" fill-opacity="0.4"/>
<path d="M21.4837 0C23.9556 0 25.9595 2.007 25.9595 4.48276V18.9705C25.9595 21.5319 22.7233 22.6435 21.1538 20.6213L16.247 14.2994V21.9655C16.247 24.1937 14.4435 26 12.2188 26C12.4659 26 12.6663 25.7993 12.6663 25.5517V11.6853C12.6663 9.12403 15.9025 8.0124 17.472 10.0346L22.3788 16.3564V0.896552C22.3788 0.4014 21.978 0 21.4837 0Z" fill="#63F655"/>
<path d="M43.7603 7.65451V14.455L37.1767 7.65451H33.75V18.7767H36.8753V11.4678L44.0459 18.7767H46.8856V7.65451H43.7603Z" fill="#1A1A1A"/>
<path d="M52.679 16.2981V14.3278H59.6751V11.9604H52.679V10.1332H61.1664V7.65451H49.4903V18.7767H61.3409V16.2981H52.679Z" fill="#1A1A1A"/>
<path d="M69.6457 19.1422C74.0401 19.1422 76.8956 16.9813 76.8956 13.2156C76.8956 9.44995 74.0401 7.28906 69.6457 7.28906C65.2513 7.28906 62.4116 9.44995 62.4116 13.2156C62.4116 16.9813 65.2513 19.1422 69.6457 19.1422ZM69.6457 16.5046C67.2026 16.5046 65.6955 15.313 65.6955 13.2156C65.6955 11.1183 67.2184 9.92662 69.6457 9.92662C72.0888 9.92662 73.5959 11.1183 73.5959 13.2156C73.5959 15.313 72.0888 16.5046 69.6457 16.5046Z" fill="#1A1A1A"/>
<path d="M88.8742 7.65451V14.455L82.2906 7.65451H78.8639V18.7767H81.9892V11.4678L89.1598 18.7767H91.9995V7.65451H88.8742Z" fill="#1A1A1A"/>
<defs>
<linearGradient id="paint0_linear_4729_31710" x1="25.9597" y1="26" x2="3.09307" y2="0.0352383" gradientUnits="userSpaceOnUse">
<stop stop-color="#62F755"/>
<stop offset="1" stop-color="#8FF986" stop-opacity="0"/>
</linearGradient>
<linearGradient id="paint1_linear_4729_31710" x1="25.9596" y1="26" x2="10.5342" y2="20.0093" gradientUnits="userSpaceOnUse">
<stop stop-opacity="0.9"/>
<stop offset="1" stop-color="#1A1A1A" stop-opacity="0"/>
</linearGradient>
</defs>
</svg>
