<svg xmlns="http://www.w3.org/2000/svg" viewBox="0 0 20 20" xmlSpace="preserve" width="20" height="20">
  <style>
    .enableBackground {
      enableBackground: new 0 0 20 20;
    }
  </style>  
  <path fillRule="evenodd" clipRule="evenodd" d="M2.8 1.6c-.3 0-.6.1-.9.4s-.4.5-.4.9v14.3c0 .4.1.6.4.9.3.3.5.4.9.4h14.3c.4 0 .6-.1.9-.4.3-.3.4-.5.4-.9V2.8c0-.4-.1-.6-.4-.9s-.5-.4-.9-.4l-14.3.1zM1 1C1.5.5 2.2.3 2.8.3h14.3c.7 0 1.4.3 1.8.7.5.5.7 1.2.7 1.8v14.3c0 .7-.3 1.4-.7 1.8-.5.5-1.2.7-1.8.7H2.8c-.7 0-1.4-.3-1.8-.7-.5-.5-.7-1.2-.7-1.8V2.8C.2 2.2.5 1.5 1 1zm8.3 3.8V3.6h1.4v1.2c.4.1.7.3 1.1.5.5.4.7.9.7 1.5h-1.4c0-.1-.2-.6-.7-.7-.8-.2-1.5.3-1.5.8s.2 1 1.2 1.1c.8.1 1.5.3 1.9.8.5.5.6 1.1.6 1.6 0 1.1-.8 1.8-1.8 2.1v1.1H9.5v-1.2c-1-.3-1.8-1.1-1.8-2.1H9c0 .3.4.8 1.1.8.8 0 1.1-.5 1.1-.8 0-1.1-1.1-1-2.3-1.4-1.8-.5-2-3.6.4-4.1zM3.6 16.2h12.7v-1.4H3.6v1.4z" />
</svg>