<svg width="20" height="20" viewBox="0 0 20 20" xmlns="http://www.w3.org/2000/svg">
  <path fillRule="evenodd" clipRule="evenodd" d="M19.917.917H.083v8.166h2.5v1.667h1.5V9.083h11.834v1.667h1.5V9.083h2.5V.917ZM4.083 7.583h-2.5V2.417h16.834v5.166H4.083Zm15.834 3.334H.083v8.166h19.834v-8.166ZM1.583 17.583v-5.166h16.834v5.166H1.583Zm1-13.333H5.75v1.5H2.583v-1.5Zm3.167 10H2.583v1.5H5.75v-1.5Zm1-10h3.167v1.5H6.75v-1.5Zm3.167 10H6.75v1.5h3.167v-1.5Zm5.916-9.333a.083.083 0 1 0 0 .166.083.083 0 0 0 0-.166ZM14.25 5a1.583 1.583 0 1 1 3.167 0 1.583 1.583 0 0 1-3.167 0Zm1.5 10a.083.083 0 1 1 .167 0 .083.083 0 0 1-.167 0Zm.083-1.583a1.583 1.583 0 1 0 0 3.166 1.583 1.583 0 0 0 0-3.166Z" />
  <style>
    .fill {
      fill: #9FA8BA;
    }
  </style>
</svg>