<svg xmlns="http://www.w3.org/2000/svg" viewBox="0 0 20 20" xmlSpace="preserve" width="20" height="20">
  <style>
    .enableBackground {
      enableBackground: new 0 0 20 20;
    }
  </style>
  <defs /> 
  <path id="a" d="M20 20H0" />
  <path fillRule="evenodd" clipRule="evenodd" d="M2.6 1.6h8.2c.6 0 1 .3 1 1v1.7h1.6V2.6C13.4.9 12.1 0 10.8 0H2.6C1.1 0 0 1.2 0 2.6v8.2c0 1.5 1.2 2.6 2.6 2.6h1.7v-1.6H2.6c-.6 0-1-.5-1-1V2.6c0-.6.4-1 1-1zm5.6 7.6c0-.6.5-1 1-1h8.2c.6 0 1 .5 1 1v8.2c0 .6-.5 1-1 1H9.2c-.6 0-1-.5-1-1V9.2zm1-2.6c-1.4 0-2.6 1.2-2.6 2.6v8.2c0 1.4 1.2 2.6 2.6 2.6h8.2c1.4 0 2.6-1.2 2.6-2.6V9.2c0-1.4-1.2-2.6-2.6-2.6H9.2z" />
</svg>