<svg width="40" height="40" viewBox="0 0 40 40" fill="none" xmlns="http://www.w3.org/2000/svg">
  <circle cx="20" cy="20" r="20" fill="#EEF0F1" />
  <path d="M20 11c-3.829 0-8 .9-8 2.813 0 1.912 4.171 2.812 8 2.812 3.829 0 8-.9 8-2.813C28 11.9 23.829 11 20 11Z" fill="#5C6670" />
  <path d="M20 17.75c-3.086 0-6.343-.507-8-1.8V20c0 1.912 4.171 2.812 8 2.812 3.829 0 8-.9 8-2.813v-4.05c-1.657 1.294-4.914 1.8-8 1.8Z" fill="#5C6670" />
  <path d="M20 23.937c-3.086 0-6.343-.507-8-1.8v4.05c0 1.912 4.171 2.812 8 2.812 3.829 0 8-.9 8-2.812v-4.05c-1.657 1.293-4.914 1.8-8 1.8Z" fill="#5C6670" />
</svg>