<svg xmlns="http://www.w3.org/2000/svg" viewBox="0 0 20 20" xmlSpace="preserve" width="20" height="20">
  <style> 
    .enableBackground {
      enableBackground: new 0 0 20 20;
    }
  </style>
  <path fillRule="evenodd" clipRule="evenodd" d="M2.3 4c0 .4 1.2.7 1.9.9 1.4.4 3.4.6 5.7.6s4.3-.2 5.7-.6c.7-.2 1.9-.6 1.9-.9s-1.2-.7-1.9-.9c-1.4-.4-3.4-.6-5.7-.6-2.3-.1-4.3.1-5.7.5-.7.2-1.9.6-1.9 1zm1.5-2.3C5.4 1.3 7.6 1 9.9 1s4.5.3 6.1.7c.8.2 1.5.5 2 .8s1 .8 1 1.5v12c0 .7-.5 1.2-1 1.5s-1.2.6-2 .8c-1.6.4-3.7.7-6 .7s-4.5-.3-6-.7c-.8-.2-1.5-.5-2-.8s-1-.8-1-1.5V4c0-.7.5-1.2 1-1.5.4-.3 1.1-.6 1.8-.8zM2.3 9.3v.9s1.2.5 1.9.7c1.4.4 3.4.6 5.7.6 2.2 0 4.3-.3 5.7-.6.7-.2 1.3-.4 1.6-.6.3-.2.3-.3.3-.3V5.7c-.4.2-1 .4-1.6.6-1.6.4-3.7.7-6.1.7-2.3 0-5.5-.4-7.5-1.3v3.6zm15.2 2.4c-.4.2-1 .4-1.6.6-1.6.4-3.7.7-6 .7s-4.5-.3-6-.7c-.6-.2-1.1-.4-1.6-.6v4.4c0 .2 1.2.6 1.9.8 1.4.4 3.4.6 5.7.6 2.2 0 4.3-.3 5.7-.6.7-.2 1.9-.5 1.9-.9v-4.3z" />
</svg>