<svg width="53" height="48" viewBox="0 0 53 48" fill="none" xmlns="http://www.w3.org/2000/svg">
  <path d="M36 47H5a4 4 0 0 1-4-4V5a4 4 0 0 1 4-4h29a4 4 0 0 1 4 4v12" stroke="currentColor" strokeWidth="1.6" strokeLinecap="round" fill="transparent" />
  <rect x="7" y="7" width="24" height="2" rx="1" fill="currentColor" />
  <rect x="7" y="15" width="24" height="2" rx="1" fill="currentColor" />
  <rect x="7" y="39" width="18" height="2" rx="1" fill="currentColor" />
  <rect x="7" y="23" width="19" height="2" rx="1" fill="currentColor" />
  <rect x="7" y="31" width="14" height="2" rx="1" fill="currentColor" />
  <circle cx="37" cy="33" r="10.2" stroke="currentColor" strokeWidth="1.6" fill="transparent" />
  <rect width="1.6" height="10" rx="0.8" transform="matrix(.7071 -.7071 .72873 .6848 44 40)" fill="currentColor" />
  <path d="M35.837 34.867v-.417c0-.326.04-.611.119-.854.079-.243.212-.47.398-.682.186-.216.438-.442.754-.676a9.76 9.76 0 0 0 .776-.629c.195-.176.335-.353.419-.53.088-.18.132-.39.132-.629 0-.375-.135-.66-.405-.854-.265-.199-.64-.298-1.124-.298a4.13 4.13 0 0 0-1.209.172c-.377.115-.75.259-1.117.43L34 28.736c.424-.22.882-.397 1.376-.53A6.184 6.184 0 0 1 37.018 28c.95 0 1.683.218 2.2.656.521.437.782 1.013.782 1.728 0 .393-.065.73-.196 1.013-.13.279-.323.537-.58.775a9.852 9.852 0 0 1-.914.742c-.294.22-.52.413-.678.576-.154.159-.26.32-.321.483a1.83 1.83 0 0 0-.084.59v.304h-1.39ZM35.572 37c0-.362.097-.616.293-.762.2-.15.445-.225.733-.225.28 0 .52.075.72.225.2.146.3.4.3.762 0 .353-.1.61-.3.768-.2.155-.44.232-.72.232-.288 0-.533-.077-.733-.232-.196-.159-.293-.415-.293-.768Z" fill="currentColor" />
</svg>