<svg width="20" height="20" viewBox="0 0 20 20" fill="none" xmlns="http://www.w3.org/2000/svg">
  <g clipPath="url(#a)">
    <path fillRule="evenodd" clipRule="evenodd" d="M1 .25A.75.75 0 0 0 .25 1v18a.75.75 0 0 0 1.103.662l3.29-1.755 1.859 1.654a.75.75 0 0 0 .914.063L10 17.901l2.584 1.723a.75.75 0 0 0 .914-.063l1.86-1.654 3.29 1.755A.75.75 0 0 0 19.75 19V1A.75.75 0 0 0 19 .25H1Zm.75 17.5v-16h16.5v16l-2.647-1.412a.75.75 0 0 0-.851.101l-1.818 1.616-2.518-1.679a.75.75 0 0 0-.832 0l-2.518 1.679-1.818-1.616a.75.75 0 0 0-.85-.1L1.75 17.75Zm9-5.5H4.875v1.5h5.875v-1.5Zm1.625 0h2.75v1.5h-2.75v-1.5ZM8.25 6.5a1.75 1.75 0 1 1 3.5 0 1.75 1.75 0 0 1-3.5 0ZM10 3.25a3.25 3.25 0 1 0 0 6.5 3.25 3.25 0 0 0 0-6.5Z" fill="url(#b)" />
    <defs>
      <linearGradient id="b" x1="19.75" y1="19.75" x2="2.603" y2="0.25" gradientUnits="userSpaceOnUse">
        <stop stopColor="#5EF551" />
        <stop offset="1" stopColor="#03C5BF" />
      </linearGradient>
    </defs>
    <clipPath id="a">
      <path fill="#fff" d="M0 0h20v20H0z" />
    </clipPath>
  </g>
</svg>