<svg width="24" height="24" viewBox="0 0 24 24" fill="none" xmlns="http://www.w3.org/2000/svg">
  <path d="M12 22c5.523 0 10-4.477 10-10S17.523 2 12 2 2 6.477 2 12s4.477 10 10 10Z" fill="#383838" />
  <path d="M11.046 12.508c0-.246.034-.455.101-.627a1.3 1.3 0 0 1 .341-.48c.236-.22.45-.413.645-.577.202-.164.374-.316.518-.455.143-.148.252-.283.328-.406a.74.74 0 0 0 .126-.406c0-.27-.088-.48-.265-.627a.912.912 0 0 0-.644-.233c-.396 0-.7.106-.91.32a1.241 1.241 0 0 0-.34.774L9 9.668c.093-.869.421-1.529.985-1.98C10.55 7.23 11.274 7 12.158 7c.387 0 .75.053 1.086.16.345.098.649.25.91.455.26.205.467.459.619.762.151.303.227.652.227 1.045 0 .238-.025.455-.076.652-.05.188-.139.377-.265.565a3.148 3.148 0 0 1-.48.578 8.03 8.03 0 0 1-.745.627c-.194.148-.324.291-.392.43a.952.952 0 0 0-.1.419v.356h-1.896v-.54Zm-.214 2.36a1.126 1.126 0 0 1 .328-.798c.11-.107.236-.189.379-.246a1.21 1.21 0 0 1 .455-.086c.16 0 .311.028.454.086.144.057.266.14.367.246.11.098.193.217.252.356.06.14.089.287.089.443a1.125 1.125 0 0 1-.341.811 1.107 1.107 0 0 1-.367.234 1.21 1.21 0 0 1-.454.086 1.265 1.265 0 0 1-.834-.32 1.222 1.222 0 0 1-.24-.368 1.125 1.125 0 0 1-.088-.443Z" fill="#fff" />
</svg>