<svg width="28" height="28" viewBox="0 0 28 28" fill="none" xmlns="http://www.w3.org/2000/svg">
  <rect width="28" height="28" rx="4" fill="#F0F075" />
  <path d="M21.07 6.935A9.84 9.84 0 0 0 14 4a9.839 9.839 0 0 0-7.07 2.935 9.983 9.983 0 0 0 0 14.13A9.838 9.838 0 0 0 14 24a9.838 9.838 0 0 0 7.07-2.936 9.982 9.982 0 0 0 0-14.129ZM15.633 18a4.371 4.371 0 0 1-3.266.033 3.768 3.768 0 0 1-1.434-.966 4.346 4.346 0 0 1 0-6.134c.412-.41.898-.739 1.434-.966a4.442 4.442 0 0 1 1.633-.3 3.873 3.873 0 0 1 1.633.333 3.766 3.766 0 0 1 1.434.967 4.26 4.26 0 0 1 1.266 3.066 4.397 4.397 0 0 1-1.266 3.067 4.95 4.95 0 0 1-1.434.9Zm5.834-9.367-3.034 3.034a5.303 5.303 0 0 0-2.1-2.1l3.034-3.034a9.412 9.412 0 0 1 2.1 2.1ZM7.5 7.5c.354-.35.733-.672 1.133-.967l3.034 3.034a5.304 5.304 0 0 0-2.1 2.1L6.533 8.633c.295-.4.618-.78.967-1.133Zm-.967 11.867 3.034-3.034a5.304 5.304 0 0 0 2.1 2.1l-3.034 3.034a9.412 9.412 0 0 1-2.1-2.1ZM20.5 20.5c-.354.35-.733.672-1.133.966l-3.034-3.033a5.304 5.304 0 0 0 2.1-2.1l3.034 3.034c-.295.4-.618.78-.967 1.133Z" fill="#171A1C" />
</svg>