<svg width="34" height="34" viewBox="0 0 34 34" fill="none" xmlns="http://www.w3.org/2000/svg">
  <circle cx="17" cy="17" r="17" fill="#fff" />
  <path d="M26.787 17.226c0-.659-.058-1.284-.158-1.892h-9.417v3.758h5.392c-.242 1.234-.95 2.275-2 2.984v2.5h3.217c1.883-1.742 2.966-4.309 2.966-7.35Z" fill="#4285F4" />
  <path d="M17.212 27c2.7 0 4.959-.9 6.609-2.425l-3.217-2.5c-.9.6-2.042.966-3.392.966-2.608 0-4.816-1.758-5.608-4.133H8.287v2.575C9.93 24.75 13.304 27 17.212 27Z" fill="#34A853" />
  <path d="M11.604 18.91a5.8 5.8 0 0 1-.317-1.91c0-.666.117-1.307.317-1.907v-2.575H8.287a9.884 9.884 0 0 0 0 8.966l3.317-2.575Z" fill="#FBBC05" />
  <path d="M17.212 10.958c1.475 0 2.792.509 3.834 1.5l2.85-2.85C22.17 7.992 19.912 7 17.212 7c-3.908 0-7.283 2.25-8.925 5.517l3.317 2.575c.792-2.375 3-4.134 5.608-4.134Z" fill="#EA4335" />
</svg>