<svg width="35" height="34" viewBox="0 0 35 34" fill="none" xmlns="http://www.w3.org/2000/svg">
  <path fillRule="evenodd" clipRule="evenodd" d="M17.5 0C7.831 0 0 7.8 0 17.43c0 7.713 5.01 14.227 11.966 16.537.875.152 1.203-.37 1.203-.828 0-.414-.022-1.787-.022-3.247-4.397.807-5.535-1.067-5.885-2.048-.196-.5-1.05-2.048-1.793-2.462-.613-.326-1.488-1.133-.022-1.154 1.378-.022 2.362 1.263 2.69 1.786 1.575 2.637 4.091 1.896 5.097 1.438.153-1.133.613-1.895 1.116-2.331-3.894-.436-7.962-1.94-7.962-8.606 0-1.896.678-3.464 1.793-4.684-.175-.436-.787-2.223.175-4.62 0 0 1.466-.457 4.813 1.787 1.4-.392 2.887-.588 4.375-.588a16.3 16.3 0 0 1 4.375.588c3.347-2.266 4.812-1.786 4.812-1.786.963 2.396.35 4.183.175 4.619 1.116 1.22 1.794 2.767 1.794 4.684 0 6.689-4.09 8.17-7.984 8.606.634.545 1.18 1.59 1.18 3.225 0 2.33-.021 4.204-.021 4.793 0 .457.328 1.002 1.203.828a17.523 17.523 0 0 0 8.632-6.359A17.41 17.41 0 0 0 35 17.43C35 7.8 27.169 0 17.5 0Z" fill="#fff" />
</svg>