<svg width="20" height="20" viewBox="0 0 20 20" fill="none" xmlns="http://www.w3.org/2000/svg">
  <path fillRule="evenodd" clipRule="evenodd" d="M1 4.103C1 2.39 2.326 1 3.96 1h11.251c1.635 0 2.961 1.39 2.961 3.103v10.03c0 1.773-2.14 2.543-3.179 1.143l-3.246-4.377v5.308c0 1.542-1.193 2.793-2.664 2.793H3.96C2.326 19 1 17.61 1 15.896V4.103Zm2.96-.62c-.326 0-.591.278-.591.62v11.793c0 .343.265.621.592.621h5.21c.164 0 .208-.139.208-.31V9.09c0-1.773 2.14-2.543 3.179-1.143l3.245 4.376v-8.22c0-.342.031-.62-.296-.62H3.961Z" fill="#00E0D9" />
  <path fillRule="evenodd" clipRule="evenodd" d="M1 4.103C1 2.39 2.326 1 3.96 1h11.251c1.635 0 2.961 1.39 2.961 3.103v10.03c0 1.773-2.14 2.543-3.179 1.143l-3.246-4.377v5.308c0 1.542-1.193 2.793-2.664 2.793H3.96C2.326 19 1 17.61 1 15.896V4.103Zm2.96-.62c-.326 0-.591.278-.591.62v11.793c0 .343.265.621.592.621h5.21c.164 0 .208-.139.208-.31V9.09c0-1.773 2.14-2.543 3.179-1.143l3.245 4.376v-8.22c0-.342.031-.62-.296-.62H3.961Z" fill="url(#a)" />
  <path fillRule="evenodd" clipRule="evenodd" d="M1 4.103C1 2.39 2.326 1 3.96 1h11.251c1.635 0 2.961 1.39 2.961 3.103v10.03c0 1.773-2.14 2.543-3.179 1.143l-3.246-4.377v5.308c0 1.542-1.193 2.793-2.664 2.793H3.96C2.326 19 1 17.61 1 15.896V4.103Zm2.96-.62c-.326 0-.591.278-.591.62v11.793c0 .343.265.621.592.621h5.21c.164 0 .208-.139.208-.31V9.09c0-1.773 2.14-2.543 3.179-1.143l3.245 4.376v-8.22c0-.342.031-.62-.296-.62H3.961Z" fill="url(#b)" fillOpacity="0.4" />
  <path d="M15.211 1c1.635 0 2.961 1.39 2.961 3.103v10.03c0 1.773-2.14 2.543-3.179 1.143l-3.246-4.377v5.308c0 1.542-1.193 2.793-2.664 2.793a.304.304 0 0 0 .296-.31v-9.6c0-1.773 2.14-2.543 3.179-1.143l3.245 4.376V1.621c0-.343-.265-.621-.592-.621Z" fill="#63F655" />
  <defs>
    <linearGradient id="a" x1="18.172" y1="19" x2="2.267" y2="1.743" gradientUnits="userSpaceOnUse">
      <stop stopColor="#62F755" />
      <stop offset="1" stopColor="#8FF986" stopOpacity="0" />
    </linearGradient>
    <linearGradient id="b" x1="18.172" y1="19" x2="7.851" y2="15.17" gradientUnits="userSpaceOnUse">
      <stop stopOpacity="0.9" />
      <stop offset="1" stopColor="#1A1A1A" stopOpacity="0" />
    </linearGradient>
  </defs>
</svg>