<svg xmlns="http://www.w3.org/2000/svg" viewBox="0 0 22 22" xmlSpace="preserve" width="20" height="20">
  <style>
    .enableBackground {
      enableBackground: new 0 0 22 22;
    }
  </style>
  <path fillRule="evenodd" clipRule="evenodd" d="M2.4 11c0-4.8 3.9-8.6 8.6-8.6 4.8 0 8.6 3.9 8.6 8.6 0 4.8-3.9 8.6-8.6 8.6-4.8 0-8.6-3.8-8.6-8.6zM11 .9C5.4.9.9 5.4.9 11S5.4 21.1 11 21.1 21.1 16.6 21.1 11 16.6.9 11 .9zM8.9 6c-.2-.2-.5-.2-.8 0-.2.1-.3.4-.3.6v8.8c0 .3.1.5.4.7.2.1.5.1.8 0l6.9-4.4c.2-.1.3-.4.3-.6s-.1-.5-.3-.6L8.9 6zm5.1 5-4.7 3V8l4.7 3z" />
</svg>