<svg width="20" height="20" viewBox="0 0 20 20" xmlns="http://www.w3.org/2000/svg">
  <path d="M4 14.5a.5.5 0 0 1 .5-.5h11a.5.5 0 0 1 0 1h-11a.5.5 0 0 1-.5-.5Z" />
  <path fillRule="evenodd" clipRule="evenodd" d="M4.134 4.66a.5.5 0 0 1 .706-.026l3.5 3.25a.5.5 0 0 1 0 .732l-3.5 3.25a.5.5 0 1 1-.68-.732L7.265 8.25 4.16 5.366a.5.5 0 0 1-.026-.706Z" />
  <path d="M9 11.5a.5.5 0 0 1 .5-.5h3a.5.5 0 0 1 0 1h-3a.5.5 0 0 1-.5-.5Z" />
  <path fillRule="evenodd" clipRule="evenodd" d="M16 2H4a2 2 0 0 0-2 2v12a2 2 0 0 0 2 2h12a2 2 0 0 0 2-2V4a2 2 0 0 0-2-2ZM4 1a3 3 0 0 0-3 3v12a3 3 0 0 0 3 3h12a3 3 0 0 0 3-3V4a3 3 0 0 0-3-3H4Z" />
</svg>