<svg xmlns="http://www.w3.org/2000/svg" viewBox="0 0 20 20" xmlSpace="preserve" width="20" height="20"> 
  <style>
    .enableBackground {
      enableBackground: new 0 0 20 20;
    }
  </style>
  <path fillRule="evenodd" clipRule="evenodd" d="M9 2.6c0-.6.5-1.1 1.1-1.1s1.1.5 1.1 1.1-.5 1.1-1.1 1.1S9 3.2 9 2.6zM10.1 0C8.7 0 7.5 1.2 7.5 2.6c0 .5.1.9.3 1.2l-4 4c-.3-.2-.7-.3-1.2-.3C1.2 7.5 0 8.7 0 10.1s1.2 2.6 2.6 2.6c.5 0 .9-.1 1.2-.3l3.9 3.9c-.2.4-.3.8-.3 1.2 0 1.4 1.2 2.6 2.6 2.6s2.6-1.2 2.6-2.6c0-.5-.1-.9-.3-1.2l3.9-3.9c.4.2.8.3 1.2.3 1.4 0 2.6-1.2 2.6-2.6s-1.2-2.6-2.6-2.6c-.5 0-.9.1-1.2.3l-3.9-3.9c.2-.4.3-.8.3-1.2.1-1.5-1.1-2.7-2.5-2.7zm1.2 15.2 3.9-3.9c-.2-.4-.3-.8-.3-1.2 0-.5.1-.9.3-1.2l-4-4c-.3.1-.6.2-1.1.2s-.9 0-1.2-.2l-4 4c.2.2.3.6.3 1.1 0 .5-.1.9-.3 1.2l3.9 3.9c.4-.2.9-.3 1.3-.3.5 0 .9.2 1.2.4zM2.6 8.9c-.6 0-1 .5-1 1.1 0 .6.5 1.1 1.1 1.1s1.1-.5 1.1-1.1c-.1-.6-.6-1.1-1.2-1.1zM9 10c0-.6.5-1.1 1.1-1.1s1.1.5 1.1 1.1c0 .6-.5 1.1-1.1 1.1S9 10.6 9 10zm1.1-2.5c-1.4 0-2.6 1.2-2.6 2.6s1.2 2.6 2.6 2.6 2.6-1.2 2.6-2.6-1.2-2.6-2.6-2.6zm7.4 1.4c-.6 0-1.1.5-1.1 1.1 0 .6.5 1.1 1.1 1.1.6 0 1.1-.5 1.1-1.1 0-.6-.5-1.1-1.1-1.1zM9 17.5c0-.6.5-1.1 1.1-1.1s1.1.5 1.1 1.1-.5 1.1-1.1 1.1S9 18.1 9 17.5z" />
</svg>