<svg width="28" height="28" viewBox="0 0 28 28" fill="none" xmlns="http://www.w3.org/2000/svg">
  <rect width="28" height="28" rx="4" fill="#00DB92" /> 
  <g clipPath="url(#a)">
    <path d="M14 4.5c-5.24 0-9.5 3.74-9.5 8.34 0 4.599 4.26 8.337 9.5 8.337.549 0 1.097-.042 1.64-.125l4.315 2.351a.792.792 0 0 0 1.17-.695v-4.416A7.748 7.748 0 0 0 23.5 12.84c0-4.6-4.261-8.34-9.5-8.34Z" fill="#1A1A1A" />
    <path d="M13.106 14.32v-1.848c.631-.023 1.109-.142 1.433-.355.331-.221.497-.56.497-1.018v-.166c0-.332-.099-.588-.296-.77-.197-.181-.462-.272-.793-.272-.356 0-.644.106-.865.32a1.679 1.679 0 0 0-.45.805l-1.267-.521c.071-.245.174-.482.308-.71.134-.23.308-.43.521-.605a2.34 2.34 0 0 1 .77-.426c.3-.11.647-.166 1.042-.166.402 0 .765.06 1.089.178.324.11.6.272.829.485.229.206.406.454.533.746.126.293.19.616.19.971 0 .348-.06.66-.178.936-.11.268-.265.505-.462.71-.198.198-.423.36-.675.486a3.11 3.11 0 0 1-.782.248v.971h-1.444Zm.734 2.818c-.332 0-.572-.08-.722-.237a.841.841 0 0 1-.225-.604v-.237c0-.245.075-.446.225-.604.15-.158.39-.237.722-.237.34 0 .584.08.734.237.15.158.225.36.225.604v.237a.841.841 0 0 1-.225.604c-.15.158-.395.237-.734.237Z" fill="#00E599" />
    <defs>
      <clipPath id="a">
        <path fill="#fff" transform="translate(4.5 4.5)" d="M0 0h19v19H0z" />
      </clipPath>
    </defs>
  </g>
</svg>