<svg xmlns="http://www.w3.org/2000/svg" viewBox="0 0 20 20" xmlSpace="preserve" width="20" height="20"> 
  <style>
    .enableBackground {
      enableBackground: new 0 0 20 20;
    }
  </style>
  <path fillRule="evenodd" clipRule="evenodd" d="M11.2 5.2c-.1-.1-.1-.2 0-.3l3.6-3.6c.1-.1.2-.1.3 0L18.6 5c.1.1.1.2 0 .3L15 8.8c-.1.1-.2.1-.3 0l-3.5-3.6zm-1-1.2c-.6.6-.6 1.5 0 2.1l3.6 3.6c.6.6 1.5.6 2.1 0l3.6-3.6c.6-.6.6-1.5 0-2.1L16 .4c-.6-.6-1.5-.6-2.1 0L10.2 4zM1.3 2.4c0-.1.1-.2.2-.2h5.3c.1 0 .2.1.2.2v5.3c0 .1 0 .3-.1.3H1.6c-.2 0-.3-.1-.3-.3V2.4zM0 2.4v5.3c0 .9.7 1.6 1.6 1.6h5.3c.9 0 1.6-.7 1.6-1.6V2.4c0-.9-.7-1.6-1.6-1.6H1.6C.6.8 0 1.6 0 2.4zm12.2 10.5c-.1 0-.2.1-.2.2v5.3c0 .1.1.2.2.2h5.3c.1 0 .2-.1.2-.2v-5.3c0-.1-.1-.2-.2-.2h-5.3zm-1.5.2c0-.9.7-1.6 1.6-1.6h5.3c.9 0 1.6.7 1.6 1.6v5.3c0 .9-.7 1.6-1.6 1.6h-5.3c-.9 0-1.6-.7-1.6-1.6v-5.3zm-9.3 0c0-.2 0-.2.2-.2h5.2c.1 0 .2.1.2.2v5.3c0 .1-.1.2-.2.2H1.6c-.1 0-.2-.1-.2-.2v-5.3zm-1.4.1v5.3c0 .8.7 1.5 1.6 1.5h5.3c.9 0 1.6-.7 1.6-1.6v-5.3c0-.9-.7-1.6-1.6-1.6H1.6c-1.1 0-1.6.8-1.6 1.7z" />
</svg>