<svg xmlns="http://www.w3.org/2000/svg" viewBox="0 0 20 20" xmlSpace="preserve" width="20" height="20"> 
  <style>
    .enableBackground {
      enableBackground: new 0 0 20 20;
    }
  </style>
  <path fillRule="evenodd" clipRule="evenodd" d="M3.8 5.3c0-1.6 1.3-2.9 3.1-2.9 1.7 0 3.1 1.4 3.1 2.9S8.6 8.2 6.9 8.2c-1.8 0-3.1-1.3-3.1-2.9zM6.9 1C4.5 1 2.5 2.9 2.5 5.3s2 4.3 4.4 4.3c2.4 0 4.4-1.9 4.4-4.3S9.3 1 6.9 1zm6.9 4.3c0-.9.8-1.7 1.8-1.7s1.8.8 1.8 1.7S16.7 7 15.6 7s-1.8-.8-1.8-1.7zm1.8-3.1c-1.7 0-3.2 1.3-3.2 3.1s1.5 3.1 3.2 3.1 3.2-1.3 3.2-3.1-1.5-3.1-3.2-3.1zM2 12.5c1.3-1.2 3-1.9 4.9-1.9s3.6.7 4.9 1.9c1.3 1.3 2 3 2 4.8 0 .2-.1.4-.2.5-.1.1-.3.2-.5.2H.7c-.2 0-.3-.1-.5-.2-.1-.1-.2-.3-.2-.5 0-1.8.7-3.5 2-4.8zm4.9-.5c-1.5 0-2.9.6-3.9 1.6-.9.8-1.4 1.9-1.6 3h11c-.2-1.1-.7-2.2-1.6-3-1-1-2.4-1.6-3.9-1.6zm7-.7c.5-.3 1.1-.5 1.7-.5.8 0 1.6.3 2.2.9.6.5.9 1.3.9 2v.5h-3.1c-.4 0-.7.3-.7.7s.3.7.7.7h3.7c.4 0 .7-.3.7-.7v-1.2c0-1.2-.5-2.3-1.3-3.1-.8-.8-1.9-1.2-3.1-1.2v.7-.7c-.9 0-1.7.2-2.4.7-.3.2-.4.6-.2 1 .2.3.6.4.9.2z" />
</svg>