<svg width="16" height="16" viewBox="0 0 16 16" fill="none" xmlns="http://www.w3.org/2000/svg">
  <path fillRule="evenodd" clipRule="evenodd" d="M2.75 3A.25.25 0 0 1 3 2.75h5.25V5a.75.75 0 0 0 1.5 0V2.75h.836a.25.25 0 0 1 .177.073l2.414 2.414a.25.25 0 0 1 .073.177V13a.25.25 0 0 1-.25.25H3a.25.25 0 0 1-.25-.25V3ZM9 1.25h1.586c.464 0 .909.184 1.237.513l2.414 2.414c.329.328.513.773.513 1.237V13A1.75 1.75 0 0 1 13 14.75H3A1.75 1.75 0 0 1 1.25 13V3c0-.966.784-1.75 1.75-1.75h6ZM4.25 9A.75.75 0 0 1 5 8.25h6a.75.75 0 0 1 .75.75v2a.75.75 0 0 1-1.5 0V9.75h-4.5V11a.75.75 0 0 1-1.5 0V9Z" fill="currentColor" />
</svg>