<svg xmlns="http://www.w3.org/2000/svg" viewBox="0 0 20 20" xmlSpace="preserve" width="20" height="20"> 
  <style>
    .enableBackground {
      enableBackground: new 0 0 20 20;
    }
  </style>
  <path fillRule="evenodd" clipRule="evenodd" d="M10 1.4c-.6 0-1 .4-1 .9s.4.9 1 .9 1-.4 1-.9-.4-.9-1-.9zm-2.4.8C7.6.9 8.7 0 10 0s2.4.9 2.4 2.2v.4l3.5 1.7c.4-.4 1.1-.6 1.7-.6 1.2 0 2.4 1 2.4 2.3 0 1.1-.8 1.9-1.7 2.2V12c1 .3 1.7 1.1 1.7 2.2 0 1.3-1.2 2.2-2.4 2.2-.6 0-1.2-.2-1.7-.6l-3.5 1.7v.4c0 1.3-1.2 2.2-2.4 2.2-1.3 0-2.4-.9-2.4-2.2v-.4l-3.5-1.7c-.4.4-1.1.6-1.7.6C1.2 16.3 0 15.3 0 14c0-1.1.8-1.9 1.7-2.2V8.1C.8 7.8 0 7 0 6c0-1.3 1.2-2.2 2.4-2.2.6 0 1.2.2 1.7.6l3.5-1.7v-.5zm.7 13.9c.3-.3.6-.4 1-.5v-3.4c-.3 0-.7-.2-.9-.5l-3.6 1.9c.1.4.1.7 0 .9l3.5 1.6zm2.4-.5c.4.1.7.3 1 .5l3.5-1.7V14c0-.2 0-.3.1-.5l-3.6-1.9c-.3.3-.6.5-.9.5v3.5h-.1zm6.2-7.5v3.8c-.3.1-.7.3-.9.5l-3.6-1.9c.2-.3.1-.8 0-1L16 7.6c.2.3.5.4.9.5zM3.1 11.9c.3.1.7.3.9.5l3.6-1.9c-.2-.3-.1-.8 0-1L4.1 7.6c-.3.3-.7.5-1 .5v3.8zm8.6-8 3.5 1.7V6c0 .2 0 .3.1.5l-3.6 1.9c-.3-.2-.6-.4-.9-.5V4.4c.3-.1.6-.3.9-.5zm-7 1.7c.1.3.1.7 0 .9l3.6 1.9c.2-.4.7-.6 1-.6V4.4c-.4-.1-.7-.3-1-.5L4.7 5.6zM9 10c0-.4.4-.9 1-.9s1 .4 1 .9c0 .4-.4.9-1 .9s-1-.5-1-.9zM1.4 6c0-.4.4-.9 1-.9s1 .4 1 .9c0 .4-.4.9-1 .9s-1-.5-1-.9zm16.2-.9c-.6 0-1 .4-1 .9 0 .4.4.9 1 .9s1-.4 1-.9c0-.4-.4-.9-1-.9zM1.4 14c0-.4.4-.9 1-.9s1 .4 1 .9c0 .4-.4.9-1 .9s-1-.5-1-.9zm16.2-.8c-.6 0-1 .4-1 .9 0 .4.4.9 1 .9s1-.4 1-.9-.4-.9-1-.9zM9 17.8c0-.4.4-.9 1-.9s1 .4 1 .9c0 .4-.4.9-1 .9-.6-.1-1-.5-1-.9z" />
</svg>