<svg xmlns="http://www.w3.org/2000/svg" viewBox="0 0 20 20" xmlSpace="preserve" width="20" height="20"> 
  <style>
    .enableBackground {
      enableBackground: new 0 0 20 20;
    }
  </style>
  <path fillRule="evenodd" clipRule="evenodd" d="M20 0H0v20h20V0zM1.5 18.5v-17h17v17h-17zm4.6-9.1V4.6H4.6v4.8h1.5zm9.3 0V4.6h-1.5v4.8h1.5zM10 17c-.9 0-1.8-.4-2.4-1-.6-.6-1-1.5-1-2.4v-2.7h6.8v2.7c0 .9-.4 1.8-1 2.4-.6.7-1.5 1-2.4 1zm0-1.5c.5 0 1-.2 1.3-.6.4-.4.6-.8.6-1.3v-1.2H8.1v1.2c0 .5.2 1 .6 1.3.3.4.8.6 1.3.6z" />
</svg>