<svg xmlns="http://www.w3.org/2000/svg" viewBox="0 0 20 20" xmlSpace="preserve" width="20" height="20"> 
  <style>
    .enableBackground {
      enableBackground: new 0 0 20 20;
    }
  </style>
  <path fillRule="evenodd" clipRule="evenodd" d="M20 0H0v8.6h2.5v2.1h1.4V8.6h12.2v2.1h1.4V8.6H20V0zm-2.5 7.2h1.1V1.4H1.4v5.8H17.5zM7.6 3.6H3.1V5h4.5V3.6zM16.2 5c.3 0 .6-.3.6-.7 0-.4-.3-.7-.6-.7s-.6.3-.6.7c0 .4.3.7.6.7zm3.8 6.4H0V20h20v-8.6zM1.4 18.6v-5.8h17.2v5.8H1.4zM3.1 15h4.5v1.4H3.1V15zm13.7.7c0 .4-.3.7-.6.7s-.6-.3-.6-.7c0-.4.3-.7.6-.7s.6.3.6.7z" />
</svg>