<svg xmlns="http://www.w3.org/2000/svg" viewBox="0 0 20 20" xmlSpace="preserve" width="20" height="20"> 
  <style>
    .enableBackground {
      enableBackground: new 0 0 20 20;
    }
  </style>
  <path fillRule="evenodd" clipRule="evenodd" d="M1.5 10c0-4.7 3.8-8.5 8.5-8.5s8.5 3.8 8.5 8.5c0 2.1-.8 4-2 5.5l-.3-.6c-.3-.5-.7-.9-1.2-1.2l-1.7-1c.5-.8.9-1.7.9-2.7V8.3c0-1.1-.4-2.1-1.2-2.9-.8-.8-1.8-1.2-2.9-1.2-1.1 0-2.1.4-2.9 1.2-.9.8-1.3 1.8-1.3 2.9V10c0 1 .3 1.9.9 2.7l-1.7 1c-.5.3-.9.7-1.2 1.2l-.3.6C2.3 14 1.5 12.1 1.5 10zm3.4 6.8c1.4 1.1 3.2 1.7 5.1 1.7 1.9 0 3.7-.6 5.1-1.7v-.3c0-.3-.1-.6-.2-.9-.2-.3-.4-.5-.7-.6l-2.1-1.2c-.6.5-1.4.7-2.2.7-.8 0-1.6-.3-2.2-.7L5.8 15c-.3.2-.5.4-.7.6-.2.3-.2.6-.2.9v.3zM10 0C4.5 0 0 4.5 0 10s4.5 10 10 10 10-4.5 10-10S15.5 0 10 0zm0 5.7c-.7 0-1.4.3-1.8.8-.5.5-.8 1.1-.8 1.8V10c0 .7.3 1.5.8 2.1.5.6 1.1.9 1.8.9s1.3-.3 1.8-.9c.5-.6.8-1.4.8-2.1V8.3c0-.7-.3-1.4-.8-1.8-.4-.5-1.1-.8-1.8-.8z" />
</svg>