<svg width="20" height="20" viewBox="0 0 20 20" fill="none" xmlns="http://www.w3.org/2000/svg">
  <path fillRule="evenodd" clipRule="evenodd" d="M9.5 2.5a.5.5 0 1 1 1 0 .5.5 0 0 1-1 0Zm1.25 1.855a2 2 0 1 0-1.5 0V19.5h1.5V4.355Zm-6.25.02a.5.5 0 1 1 1 0 .5.5 0 0 1-1 0ZM5.75 6.23a2 2 0 1 0-1.5 0v2.206l2.5 2.5V19.5h1.5v-9.186l-2.5-2.5V6.23Zm-1.875 8.46v-1.585a2 2 0 1 0-1.5 0v2.206l1.875 1.875V19.5h1.5v-2.936L3.875 14.69Zm-.25-3.44a.5.5 0 1 1-1 0 .5.5 0 0 1 1 0Zm14 1.855v2.206l-1.875 1.875V19.5h-1.5v-2.936l1.875-1.875v-1.584a2 2 0 1 1 1.5 0Zm-.75-1.355a.5.5 0 1 0 0-1 .5.5 0 0 0 0 1ZM15.75 8.436V6.23a2 2 0 1 0-1.5 0v1.584l-2.5 2.5V19.5h1.5v-8.564l2.5-2.5Zm-.25-4.061a.5.5 0 1 1-1 0 .5.5 0 0 1 1 0Z" fill="#9FA8BA" />
</svg>