<svg xmlns="http://www.w3.org/2000/svg" viewBox="0 0 20 20" xmlSpace="preserve" width="20" height="20">
  <style>
    .enableBackground {
      enableBackground: new 0 0 20 20;
    }
  </style>
  <path fillRule="evenodd" clipRule="evenodd" d="M8.5 16.5c0 1.9-1.7 3.5-3.8 3.5-2 0-3.7-1.6-3.7-3.5 0-1.7 1.4-3.2 3.1-3.4V7C2.4 6.7 1 5.2 1 3.5 1 1.6 2.7 0 4.8 0s3.8 1.6 3.8 3.5c0 1.6-1.2 3-2.9 3.4v4c.2-.1.3-.2.5-.3 1-.6 5.7-1.9 6.8-2.4s1.2-1.1 1.2-1.3c-1.6-.4-2.8-1.8-2.8-3.4 0-1.9 1.7-3.5 3.8-3.5S19 1.6 19 3.5c0 1.8-1.4 3.2-3.2 3.5-.1.5-.7 1.6-1.7 2.1-1 .6-6.3 2.1-7 2.5-.7.5-1.3.8-1.3 1.5 1.5.5 2.7 1.8 2.7 3.4zm-3.7 2.1c1.2 0 2.2-.9 2.2-2.1s-1-2.1-2.2-2.1-2.2.9-2.2 2.1c-.1 1.2.9 2.1 2.2 2.1zM7 3.5c0 1.2-1 2.1-2.2 2.1s-2.3-1-2.3-2.1c0-1.2 1-2.1 2.2-2.1S7 2.3 7 3.5zm8.1 2.2c1.2 0 2.3-.9 2.3-2.1s-1-2.1-2.3-2.1c-1.2 0-2.2.9-2.2 2.1s1 2.1 2.2 2.1z" />
</svg>