<svg width="12" height="12" viewBox="0 0 12 12" xmlns="http://www.w3.org/2000/svg">
  <g clipPath="url(#a)">
    <path fillRule="evenodd" clipRule="evenodd" d="M3 2V0H2v2h-.5A1.5 1.5 0 0 0 0 3.5v7A1.5 1.5 0 0 0 1.5 12h9a1.5 1.5 0 0 0 1.5-1.5v-7A1.5 1.5 0 0 0 10.5 2H10V0H9v2H3Zm6 1H1.5a.5.5 0 0 0-.5.5V5h10V3.5a.5.5 0 0 0-.5-.5H9Zm2 3H1v4.5a.5.5 0 0 0 .5.5h9a.5.5 0 0 0 .5-.5V6Z" />
    <defs>
      <clipPath id="a">
        <path fill="#fff" d="M0 0h12v12H0z" />
      </clipPath>
    </defs>
  </g>
</svg>