<svg xmlns="http://www.w3.org/2000/svg" viewBox="0 0 20 20" xmlSpace="preserve" width="20" height="20">
  <style>
    .enableBackground {
      enableBackground: new 0 0 20 20;
    }
  </style>
  <path fillRule="evenodd" clipRule="evenodd" d="M2.5 1.9c-.5 0-.9.4-.9.9v.9h16.8v-.9c0-.4-.3-.9-.9-.9h-15zm17.4 1.8v9.1c0 .6-.3 1.3-.7 1.7-.5.5-1.1.7-1.7.7h-1.6v-1.5h1.6c.6 0 .9-.5.9-.9V5.2H1.6v7.6c0 .4.3.9.9.9h1.6v1.5H2.5c-.6 0-1.3-.3-1.7-.7-.5-.5-.7-1.1-.7-1.7v-10c0-.6.3-1.3.7-1.7C1.3.6 1.9.4 2.5.4h15c.6 0 1.3.3 1.7.7.5.5.7 1.1.7 1.7v.9zM14.4 12 10 7.6 5.6 12l1.1 1.1 2.6-2.6v9h1.5v-9l2.6 2.6 1-1.1z" />
</svg>