<svg width="12" height="12" viewBox="0 0 12 12" xmlns="http://www.w3.org/2000/svg">
  <g clipPath="url(#a)">
    <path d="M1.258 2.1c-.217.188-.258.324-.258.4 0 .076.04.212.258.4.216.185.558.375 1.024.544C3.209 3.782 4.524 4 6 4s2.79-.218 3.718-.556c.466-.17.808-.359 1.024-.545.217-.187.258-.323.258-.399 0-.076-.04-.212-.258-.4-.216-.185-.558-.375-1.024-.544C8.791 1.218 7.476 1 6 1s-2.79.218-3.718.556c-.466.17-.808.359-1.024.545ZM11 3.943a5.189 5.189 0 0 1-.94.442C8.997 4.771 7.561 5 6 5c-1.561 0-2.997-.23-4.06-.616A5.185 5.185 0 0 1 1 3.942V6c0 .076.04.212.258.4.216.185.558.375 1.024.544.927.338 2.242.556 3.718.556s2.79-.218 3.718-.556c.466-.17.808-.359 1.024-.545.217-.187.258-.323.258-.399V3.942ZM12 6V2.5c0-.477-.267-.866-.606-1.158-.34-.292-.805-.534-1.334-.726C8.997.229 7.561 0 6 0 4.439 0 3.003.23 1.94.616c-.53.192-.993.434-1.334.726C.267 1.634 0 2.023 0 2.5v7c0 .477.267.866.606 1.158.34.293.804.534 1.334.726C3.003 11.771 4.438 12 6 12c1.562 0 2.997-.23 4.06-.616.53-.192.993-.433 1.334-.726.339-.292.606-.681.606-1.158V6Zm-1 1.442a5.189 5.189 0 0 1-.94.442C8.997 8.271 7.561 8.5 6 8.5c-1.561 0-2.997-.23-4.06-.616A5.185 5.185 0 0 1 1 7.442V9.5c0 .076.04.213.258.4.216.185.558.375 1.024.544C3.209 10.782 4.524 11 6 11s2.79-.218 3.718-.556c.466-.169.808-.359 1.024-.544.217-.187.258-.324.258-.4V7.442Z" />
    <defs>
      <clipPath id="a">
        <path fill="#fff" d="M0 0h12v12H0z" />
      </clipPath>
    </defs>
  </g>
</svg>