<svg width="22" height="22" viewBox="0 0 22 22" xmlns="http://www.w3.org/2000/svg">
  <path fillRule="evenodd" clipRule="evenodd" d="M11 .875h-.75v1.5H11A8.625 8.625 0 0 1 19.625 11v.75h1.5V11A10.125 10.125 0 0 0 11 .875Zm0 9.064L4.371 3.311l-.53.529A10.098 10.098 0 0 0 .875 11a10.125 10.125 0 0 0 17.285 7.16l.53-.53L12.06 11l1.25-1.25-1.06-1.06L11 9.94ZM9.94 11 4.392 5.454a8.599 8.599 0 0 0-2.018 5.545 8.628 8.628 0 0 0 5.324 7.97 8.624 8.624 0 0 0 8.847-1.363L11 12.061 9.94 11Zm.31-7H11a7 7 0 0 1 7 7v.75h-1.5V11A5.5 5.5 0 0 0 11 5.5h-.75V4Z" />
  <style>
    .fill {
      fill: #9FA8BA;
    }
  </style>  
</svg>