<svg width="48" height="48" viewBox="0 0 48 48" fill="none" xmlns="http://www.w3.org/2000/svg">
  <path d="M36 47H5a4 4 0 0 1-4-4V5a4 4 0 0 1 4-4h29a4 4 0 0 1 4 4v12" stroke="currentColor" strokeWidth="1.6" strokeLinecap="round" fill="transparent" />
  <rect x="7" y="7" width="24" height="2" rx="1" fill="currentColor" />
  <rect x="7" y="15" width="24" height="2" rx="1" fill="currentColor" />
  <rect x="7" y="39" width="18" height="2" rx="1" fill="currentColor" />
  <rect x="7" y="23" width="19" height="2" rx="1" fill="currentColor" />
  <rect x="7" y="31" width="14" height="2" rx="1" fill="currentColor" />
  <circle cx="37" cy="33" r="10.2" stroke="currentColor" strokeWidth="1.6" fill="transparent" />
  <path d="M37 26.719v6.285l4.714 3.143" stroke="currentColor" strokeWidth="2" strokeLinecap="round" strokeLinejoin="round" />
</svg>