<svg xmlns="http://www.w3.org/2000/svg" viewBox="0 0 20 20" xmlSpace="preserve" width="20" height="20">
  <style>
    .enableBackground {
      enableBackground: new 0 0 20 20
    }
  </style>  
  <path fillRule="evenodd" clipRule="evenodd" d="M17.4 4c0 .7-.6 1.2-1.3 1.2-.7 0-1.3-.6-1.3-1.2 0-.7.6-1.2 1.3-1.2.8 0 1.3.5 1.3 1.2zm-1.2 2.8C17.7 6.8 19 5.5 19 4s-1.3-2.8-2.8-2.8c-1.3 0-2.4.8-2.7 2H3.8C1.7 3.3 0 4.9 0 7s1.7 3.8 3.8 3.8H16.1c1.3 0 2.3 1 2.3 2.2 0 1.2-1 2.2-2.3 2.2H6.5c-.3-1.2-1.4-2-2.7-2C2.3 13.2 1 14.5 1 16c0 1.5 1.3 2.8 2.8 2.8 1.3 0 2.4-.8 2.7-2h9.6c2.1 0 3.8-1.7 3.8-3.8 0-2.1-1.7-3.8-3.8-3.8H3.8c-1.3 0-2.3-1-2.3-2.3s1-2.2 2.3-2.2h9.6c.4 1.2 1.5 2.1 2.8 2.1zM5.1 16c0 .7-.6 1.2-1.3 1.2-.7 0-1.3-.6-1.3-1.2 0-.7.6-1.2 1.3-1.2.8 0 1.3.5 1.3 1.2z" />
</svg>