<svg xmlns="http://www.w3.org/2000/svg" viewBox="0 0 20 20" xmlSpace="preserve" width="20" height="20">
  <style>
    .enableBackground {
      enableBackground: new 0 0 20 20;
    }
  </style>
  <path fillRule="evenodd" clipRule="evenodd" d="M2.2 3.7c0-.8.7-1.4 1.5-1.4s1.5.6 1.5 1.4-.8 1.5-1.6 1.5-1.4-.7-1.4-1.5zM3.6 1C2.1 1 .8 2.2.8 3.7c0 1.5 1.3 2.7 2.8 2.7s2.8-1.2 2.8-2.7C6.4 2.2 5.2 1 3.6 1zm11.3 2.7c0-.8.7-1.4 1.5-1.4s1.5.6 1.5 1.4-.7 1.4-1.5 1.4c-.8.1-1.5-.6-1.5-1.4zM16.4 1c-1.5 0-2.8 1.2-2.8 2.7 0 1.5 1.3 2.7 2.8 2.7 1.5 0 2.8-1.2 2.8-2.7 0-1.5-1.3-2.7-2.8-2.7zM.9 8.6c.6-.6 1.5-.9 2.3-.9 1.5 0 2.5.8 3.2 1.6l.4.4c.2.2.4.5.7.7.3.3.7.5 1 .6l.6.2-.4 1.2-.6-.2c-.6-.2-1.1-.6-1.5-.9-.3-.2-.5-.5-.8-.8l-.3-.3C4.8 9.5 4.2 9 3.2 9c-.5 0-1 .2-1.3.5-.4.3-.6.8-.6 1.3v6.9h3.8v-5h1.3V19H0v-8.2c0-.8.3-1.6.9-2.2zm11 3.6c.6-.2 1.1-.5 1.5-.9.3-.2.5-.5.8-.8l.3-.3c.7-.7 1.3-1.2 2.3-1.2.5 0 1 .2 1.3.5.4.3.6.8.6 1.3v6.9h-3.8v-5h-1.3V19H20v-8.2c0-.8-.3-1.6-.9-2.2-.6-.6-1.4-.9-2.3-.9-1.5 0-2.5.8-3.2 1.6l-.4.4c-.2.2-.4.5-.7.7-.3.3-.7.5-1 .6l-.6.2.4 1.2.6-.2z" />
</svg>