<svg width="12" height="12" viewBox="0 0 12 12" fill="none" xmlns="http://www.w3.org/2000/svg">
  <circle cx="6" cy="6" r="6" fill="#E0E4EB" />
  <path d="M5.148 7.193V5.68c.598-.02 1.05-.116 1.356-.29.314-.182.471-.46.471-.835V4.42c0-.272-.093-.482-.28-.63-.187-.15-.437-.224-.751-.224-.336 0-.61.088-.818.262a1.34 1.34 0 0 0-.426.66L3.5 4.06c.067-.2.164-.394.291-.582.128-.187.292-.352.494-.494.202-.149.444-.265.728-.35.284-.09.613-.135.987-.135.381 0 .725.048 1.031.145.307.09.568.223.785.398.217.168.385.372.505.61.12.24.179.505.179.796 0 .284-.056.54-.168.766-.105.22-.25.413-.437.581-.187.162-.4.294-.64.398a3.28 3.28 0 0 1-.74.204v.795H5.149ZM5.843 9.5c-.314 0-.542-.065-.684-.194a.64.64 0 0 1-.213-.494v-.194c0-.2.071-.365.213-.495.142-.129.37-.194.684-.194.321 0 .553.065.695.194a.64.64 0 0 1 .213.495v.194a.64.64 0 0 1-.213.494c-.142.13-.374.194-.695.194Z" fill="#21242C" />
</svg>