<svg width="16" height="17" viewBox="0 0 16 17" fill="none" xmlns="http://www.w3.org/2000/svg">
  <path fillRule="evenodd" clipRule="evenodd" d="M9.861 4.555 6.2 8.215l-.849-.848 2.325-2.325H4.4a1.2 1.2 0 0 0-1.2 1.2v4.876a2.401 2.401 0 1 1-1.2 0V6.242a2.4 2.4 0 0 1 2.4-2.4h3.051l-2.1-2.1L6.2.894l3.661 3.66Zm4.739-.113a1.2 1.2 0 1 1-2.4 0 1.2 1.2 0 0 1 2.4 0ZM14 6.766a2.4 2.4 0 1 0-1.2 0v4.876a1.2 1.2 0 0 1-1.2 1.2H8.436l2.325-2.325-.848-.848-3.662 3.66 3.662 3.662.848-.849-2.1-2.1H11.6a2.4 2.4 0 0 0 2.4-2.4V6.766ZM3.8 13.442a1.2 1.2 0 1 1-2.4 0 1.2 1.2 0 0 1 2.4 0Z" fill="#9097A4" />
</svg>