<svg xmlns="http://www.w3.org/2000/svg" viewBox="0 0 20 20" xmlSpace="preserve" width="20" height="20">
  <style>
    .enableBackground {
      enableBackground: new 0 0 20 20;
    }
  </style>
  <path fillRule="evenodd" clipRule="evenodd" d="M1.8 0h.7C12.2 0 20 7.8 20 17.5v.8h-1.5v-.8c0-8.8-7.2-16-16-16h-.7V0zm2.9 16.3 3.6-3.6-1.1-1.1-3.6 3.6c-.3-.1-.7-.2-1.1-.2C1.1 15 0 16.1 0 17.5S1.1 20 2.5 20 5 18.9 5 17.5c0-.4-.1-.8-.3-1.2zm-3.2 1.2c0-.6.5-1 1-1s1 .5 1 1c0 .6-.5 1-1 1s-1-.5-1-1zM3.3 6.8V3.5H1.8v3.3h1.5zm9.6 1.3-2.3 2.3-1.1-1 2.3-2.3 1.1 1zm3.6 8.6h-3.3v1.5h3.3v-1.5z" />
</svg>