<svg width="56" height="56" viewBox="0 0 56 56" fill="none" xmlns="http://www.w3.org/2000/svg">
  <path fillRule="evenodd" clipRule="evenodd" d="M8 5.75A3.25 3.25 0 0 0 4.75 9v38A3.25 3.25 0 0 0 8 50.25h31.75v1.5H8A4.75 4.75 0 0 1 3.25 47V9A4.75 4.75 0 0 1 8 4.25h29A4.75 4.75 0 0 1 41.75 9v12.75h-1.5V9A3.25 3.25 0 0 0 37 5.75H8Z" fill="currentColor" />
  <path d="M34 11H10v1.5h24V11ZM34 19H10v1.5h24V19ZM28 43H10v1.5h18V43ZM29 27H10v1.5h19V27ZM24 35H10v1.5h14V35Z" fill="currentColor" />
  <path fillRule="evenodd" clipRule="evenodd" d="M40 27.5a9.5 9.5 0 1 0 0 19 9.5 9.5 0 0 0 0-19ZM29 37c0-6.075 4.925-11 11-11s11 4.925 11 11-4.925 11-11 11-11-4.925-11-11Z" fill="currentColor" />
  <path d="M48.06 42.94 47 44l7.287 6.848 1.06-1.06-7.286-6.849Z" fill="currentColor" />
</svg>