<svg width="40" height="40" viewBox="0 0 40 40" fill="none" xmlns="http://www.w3.org/2000/svg">
  <circle cx="20" cy="20" r="20" fill="#EEF0F1" />
  <path fillRule="evenodd" clipRule="evenodd" d="M24.5 16.556C24.5 19.006 22.481 21 20 21s-4.5-1.994-4.5-4.444v-1.112C15.5 12.994 17.519 11 20 11s4.5 1.994 4.5 4.444v1.112ZM20 22c3.042 0 5.288.599 6.636 1.1 1.115.415 1.864 1.517 1.864 2.742v2.575a.575.575 0 0 1-.567.583H12.067a.575.575 0 0 1-.567-.583v-2.575c0-1.225.75-2.326 1.864-2.741C14.712 22.599 16.958 22 20 22Z" fill="#5C6670" />
</svg>