<svg xmlns="http://www.w3.org/2000/svg" viewBox="0 0 20 20" xmlSpace="preserve" width="20" height="20">
    <style>
      .enableBackground {
        enableBackground: new 0 0 20 20;
    }
  </style>
  <path fillRule="evenodd" clipRule="evenodd" d="M9.9 2.6c0-3.4-4.8-3.2-4.8-.1v5.9h-.9c-.6 0-1.3.3-1.7.7-.5.5-.7 1.1-.7 1.7v2.4c0 1.3.4 2.6 1.3 3.6l2.5 3.1h11.8l1.4-9.1c.1-.8-.1-1.7-.6-2.4S17 7.2 16.1 7.1L9.9 6V2.6zM8.4 7.3l7.4 1.3c.4.1.8.3 1.1.7.3.4.4.8.3 1.3L16 18.4H6.2l-2-2.5c-.6-.8-.9-1.7-.9-2.7v-2.4c0-.6.6-.9.9-.9h.9v2.5h1.5V2.5c0-.5.4-.9.9-.9s1 .3 1 1v4.7h-.1zm2.4 3.6v5.7H9.2v-5.7h1.6zm3.3 5.7v-5.7h-1.5v5.7h1.5z" />
</svg>