<svg xmlns="http://www.w3.org/2000/svg" viewBox="0 0 20 20" xmlSpace="preserve" width="20" height="20">
  <style>
    .enableBackground {
      enableBackground: new 0 0 20 20;
    }
  </style>
  <path fillRule="evenodd" clipRule="evenodd" d="m10.1.3 4.2 4.2-1.1 1.1-2.4-2.4v11c.7-.4 1.4-.8 2.1-1.1.6-.3 1.1-.6 1.5-.8l.2-.1v-4l-2.4 2.4-1.1-1.1 4.2-4.2 4.2 4.2-1.1 1.1L16 8.2v4.9l-.4.2-.2.1c-.1.1-.3.1-.5.2-.4.2-.9.5-1.5.8-1 .5-2.1 1.1-2.8 1.5v3.9H9.3v-1.4L4 15.3v-5l-2.4 2.4-1.1-1.1 4.2-4.2 4.2 4.2-1.1 1.1-2.3-2.4v4l3.8 2.2V3.1L7 5.5l-1.1-1L10.1.3z" />
</svg>