<svg width="20" height="20" viewBox="0 0 20 20" xmlns="http://www.w3.org/2000/svg">
  <path fillRule="evenodd" clipRule="evenodd" d="M16 2H4a2 2 0 0 0-2 2v12a2 2 0 0 0 2 2h12a2 2 0 0 0 2-2V4a2 2 0 0 0-2-2ZM4 1a3 3 0 0 0-3 3v12a3 3 0 0 0 3 3h12a3 3 0 0 0 3-3V4a3 3 0 0 0-3-3H4Z" />
  <path fillRule="evenodd" clipRule="evenodd" d="M8.789 4.408A.491.491 0 0 1 9.269 4h1.463c.234 0 .436.171.479.408l.25 1.36c.509.182.98.46 1.392.817l1.266-.457a.482.482 0 0 1 .584.222l.732 1.3a.509.509 0 0 1-.105.63l-1.024.9c.053.268.08.54.084.814l-.488.006.488.006a4.541 4.541 0 0 1-.083.812l1.022.897a.509.509 0 0 1 .106.63l-.732 1.3a.482.482 0 0 1-.584.222l-1.266-.456a4.354 4.354 0 0 1-1.393.817l-.249 1.364a.491.491 0 0 1-.48.408H9.269a.491.491 0 0 1-.479-.408l-.25-1.359a4.353 4.353 0 0 1-1.392-.817l-1.266.456a.482.482 0 0 1-.584-.222l-.732-1.3a.509.509 0 0 1 .105-.63l1.023-.9a4.54 4.54 0 0 1-.083-.814v-.012a4.54 4.54 0 0 1 .083-.813L4.67 8.279a.509.509 0 0 1-.105-.629l.732-1.3a.482.482 0 0 1 .585-.221l1.265.46a4.353 4.353 0 0 1 1.393-.817l.249-1.364ZM13.414 10a3.507 3.507 0 0 0-.12-.867.508.508 0 0 1 .152-.512l.942-.83-.328-.581-1.158.418a.48.48 0 0 1-.503-.115 3.384 3.384 0 0 0-1.491-.874.495.495 0 0 1-.352-.39L10.327 5h-.654l-.229 1.252a.495.495 0 0 1-.352.39 3.384 3.384 0 0 0-1.491.875.48.48 0 0 1-.504.114l-1.158-.42-.327.58.942.83a.508.508 0 0 1 .153.512 3.513 3.513 0 0 0-.121.867c.004.293.044.584.12.867a.508.508 0 0 1-.152.512l-.942.83.328.582 1.158-.418a.48.48 0 0 1 .503.115c.416.417.93.718 1.491.874.181.05.318.202.352.39L9.673 15h.654l.229-1.252a.495.495 0 0 1 .352-.39 3.384 3.384 0 0 0 1.491-.875.48.48 0 0 1 .503-.115l1.158.418.327-.581-.94-.825a.508.508 0 0 1-.154-.513c.077-.283.117-.574.121-.867Z" />
  <path fillRule="evenodd" clipRule="evenodd" d="M10 8a2 2 0 1 0 0 4 2 2 0 0 0 0-4Zm0 1a1 1 0 1 0 0 2 1 1 0 0 0 0-2Z" />
</svg>