<svg xmlns="http://www.w3.org/2000/svg" viewBox="0 0 20 20" xmlSpace="preserve" width="20" height="20"> 
  <style>
    .enableBackground {
      enableBackground: new 0 0 20 20;
    }
  </style>
  <path fillRule="evenodd" clipRule="evenodd" d="M2.7 1.6h1.4V.1H2.8C2 .1 1.3.4.8.9S0 2 0 2.8v14.4c0 1.2.6 2.7 2.8 2.7h14.4c1.8 0 2.8-1.7 2.8-2.8V2.8C20 1.2 18.6 0 17.1 0h-1.4v1.6h1.4c.3 0 .6.1.8.3.2.2.3.5.3.8v14.4c0 .3-.1.6-.3.8-.2.2-.5.3-.8.3H2.8c-.3 0-.6-.1-.8-.3-.2-.2-.3-.5-.3-.8V2.5c0-.5.3-.9 1-.9zM14.6.1H5.3V13L10 9.1l4.7 3.9V.1zM6.8 9.6v-8H13v8.1L9.9 7 6.8 9.6z" />
</svg>