<svg xmlns="http://www.w3.org/2000/svg" viewBox="0 0 20 20" xmlSpace="preserve" width="20" height="20"> 
  <style>
    .enableBackground {
      enableBackground: new 0 0 20 20;
    }
  </style>
  <path fillRule="evenodd" clipRule="evenodd" d="M11.9 0H8.1l-.2 2.9c-.5.1-1 .3-1.4.5L4.3 1.6 1.6 4.3l1.9 2.2c-.3.4-.5.9-.6 1.4L0 8.1v3.8l2.9.2c.1.5.3.9.6 1.4l-1.9 2.2 2.7 2.7 2.2-1.9c.4.2.9.4 1.4.6l.2 2.9h3.8l.2-2.9c.5-.1.9-.3 1.4-.6l2.2 1.9 2.7-2.7-1.9-2.2c.2-.4.4-.9.6-1.4l2.9-.2V8.1l-2.9-.2c-.1-.5-.3-.9-.6-1.4l1.9-2.2-2.7-2.7-2.2 1.9c-.4-.2-.9-.4-1.4-.6L11.9 0zM9.2 4l.2-2.6h1.3l.1 2.6.5.1c.7.2 1.3.4 1.9.8l.4.3 2-1.7.9.9-1.7 2 .3.4c.4.6.6 1.2.8 1.9l.1.5 2.6.2v1.3l-2.6.1-.1.5c-.2.7-.4 1.3-.8 1.9l-.3.4 1.7 2-.9.9-2-1.7-.4.3c-.6.4-1.2.6-1.9.8l-.5.1-.2 2.6H9.4L9.2 16l-.5-.1c-.7-.2-1.3-.4-1.9-.8l-.4-.3-2 1.7-.9-.9 1.7-2-.3-.4c-.4-.6-.6-1.2-.8-1.9l-.1-.5-2.6-.2V9.4L4 9.2l.1-.5c.1-.7.4-1.4.8-1.9l.3-.4-1.7-2 .9-.9 2 1.7.4-.3c.5-.4 1.2-.7 1.9-.8l.5-.1zm-1.5 6c0-1.2 1-2.3 2.3-2.3 1.2 0 2.3 1 2.3 2.3 0 1.2-1 2.3-2.3 2.3-1.2 0-2.3-1.1-2.3-2.3zM10 6.3C8 6.3 6.3 8 6.3 10s1.6 3.7 3.7 3.7c2 0 3.7-1.6 3.7-3.7 0-2-1.7-3.7-3.7-3.7z" />
</svg>