<svg baseProfile="tiny" xmlns="http://www.w3.org/2000/svg" viewBox="0 0 20 20" overflow="visible" xmlSpace="preserve" width="20" height="20">
  <path fillRule="evenodd" d="M1.8 1.8c.2-.3.5-.4.9-.4h2.6V6H1.4V2.7c0-.4.1-.7.4-.9zm-.4 5.6V12h3.9V7.4H1.4zm0 6v4c0 .3.1.7.4.9.2.2.6.4.9.4h2.6v-5.2l-3.9-.1zm5.3 5.2h10.6c.3 0 .7-.1.9-.4.2-.2.4-.6.4-.9v-4H6.7v5.3zM18.6 12V7.4H6.7V12h11.9zm0-6V2.7c0-.3-.1-.7-.4-.9-.2-.2-.6-.4-.9-.4H6.7V6h11.9zM2.7 0A2.732 2.732 0 0 0 0 2.7v14.6A2.732 2.732 0 0 0 2.7 20h14.6a2.732 2.732 0 0 0 2.7-2.7V2.7A2.732 2.732 0 0 0 17.3 0H2.7z" />
</svg>