<svg xmlns="http://www.w3.org/2000/svg" viewBox="0 0 20 20" xmlSpace="preserve" width="20" height="20"> 
  <style>
    .enableBackground {
      enableBackground=new 0 0 20 20;
    }
  </style>
  <path fillRule="evenodd" clipRule="evenodd" d="M10 1.6c-.2 0-.5 0-.7.1-.2.1-.4.2-.5.4-.2.2-.3.4-.4.6-.1.2-.2.4-.2.6s0 .5.1.7c.1.2.2.4.4.6.2.1.4.3.6.4.2 0 .5.1.7.1s.5 0 .7-.1.4-.2.6-.4c.2-.2.3-.4.4-.6.1-.2.1-.4.1-.7 0-.2 0-.5-.1-.7s-.2-.4-.4-.6-.4-.3-.6-.4H10zM8.8.3c.4-.1.8-.2 1.2-.2s.8.1 1.2.2c.4.2.8.4 1.1.7s.5.7.7 1.1.2.8.2 1.2-.1.8-.2 1.2c-.2.4-.4.8-.7 1.1-.3.3-.7.5-1.1.7-.4.2-.8.2-1.2.2s-.8 0-1.2-.2c-.4-.1-.8-.4-1.1-.7-.3-.3-.5-.6-.7-1s-.2-.8-.2-1.3c0-.4.1-.8.2-1.2.2-.4.4-.8.7-1.1.3-.3.7-.5 1.1-.7zM3.1 3.1c.2-.2.4-.3.6-.3.2 0 .5.1.6.3s.3.4.3.6c0 .2-.1.5-.3.6-.1.3-.3.4-.6.4-.2 0-.5-.1-.6-.3-.2-.2-.3-.4-.3-.6 0-.3.1-.5.3-.7zm.6-1.8c-.6 0-1.2.3-1.7.7s-.7 1.1-.7 1.8.3 1.2.7 1.7c.5.5 1.1.7 1.7.7s1.3-.3 1.8-.7c.4-.5.7-1.1.7-1.7S5.9 2.5 5.5 2c-.5-.4-1.1-.7-1.8-.7zM1.9 8.5c.1-.2.4-.3.6-.3H5c.2 0 .3 0 .4.1-.2.4-.3.8-.3 1.3v4.8l1.7.4.4 5.2h5.5l.4-5.2 1.7-.4V9.6c0-.4-.1-.9-.3-1.2.1-.1.3-.1.4-.1h2.5c.2 0 .5.1.6.3.2.2.3.4.3.6v3.2l-1.2.4-.4 4.4H15v1.5h3.2l.4-4.8 1.3-.4V9.2c0-.6-.3-1.3-.7-1.7-.5-.5-1.1-.7-1.7-.7H15c-.4 0-.8.1-1.2.3-.1.1-.3.2-.4.3-.3-.1-.6-.2-.9-.2h-5c-.3 0-.6.1-.9.2-.4-.4-1-.6-1.6-.6H2.5c-.6 0-1.3.2-1.7.7-.5.4-.7 1-.7 1.7v4.3l1.3.4.4 4.8H5v-1.5H3.2l-.4-4.4-1.2-.4V9.2c0-.3.1-.5.3-.7zM14.5 2c.5-.5 1.1-.7 1.7-.7s1.3.3 1.7.7c.5.5.7 1.1.7 1.7S18.4 5 18 5.5c-.5.5-1.1.7-1.7.7s-1.3-.3-1.7-.7c-.5-.5-.7-1.1-.7-1.7s.2-1.3.6-1.8zm1.7.8c-.2 0-.5.1-.6.3s-.3.4-.3.6c0 .2.1.5.3.6.2.2.4.3.6.3s.5-.1.6-.3c.2-.2.3-.4.3-.6 0-.2-.1-.5-.3-.6-.1-.2-.3-.3-.6-.3zM6.9 8.9c.1-.1.4-.2.6-.2h5c.2 0 .5.1.6.3.2.2.3.4.3.6v3.6l-1.6.4-.4 4.8H8.6l-.4-4.8-1.6-.4V9.6c0-.3.1-.5.3-.7z" />
</svg>