<svg width="20" height="20" viewBox="0 0 20 20" xmlns="http://www.w3.org/2000/svg">
  <g clipPath="url(#a)" fillRule="evenodd" clipRule="evenodd">
    <path d="M3 4a1 1 0 0 1 1 1v12.333c0 .192.073.367.19.488.114.12.26.179.4.179h10.82a.556.556 0 0 0 .4-.179.708.708 0 0 0 .19-.488V5a1 1 0 1 1 2 0v12.333c0 .693-.262 1.366-.743 1.87A2.555 2.555 0 0 1 15.41 20H4.591a2.555 2.555 0 0 1-1.848-.798A2.708 2.708 0 0 1 2 17.333V5a1 1 0 0 1 1-1Z" />
    <path d="M5 1a1 1 0 0 1 1-1h8a1 1 0 0 1 1 1v4a1 1 0 1 1-2 0V2H7v3a1 1 0 0 1-2 0V1Z" />
    <path d="M0 5a1 1 0 0 1 1-1h18a1 1 0 1 1 0 2H1a1 1 0 0 1-1-1ZM7.293 9.293a1 1 0 0 1 1.414 0l4 4a1 1 0 0 1-1.414 1.414l-4-4a1 1 0 0 1 0-1.414Z" />
    <path d="M12.707 9.293a1 1 0 0 0-1.414 0l-4 4a1 1 0 1 0 1.414 1.414l4-4a1 1 0 0 0 0-1.414Z" />
    <defs>
      <clipPath id="a">
        <path d="M0 0h20v20H0z" />
      </clipPath>
    </defs>
  </g>
</svg>